<svg width="41" height="41" viewBox="0 0 41 41" fill="none" xmlns="http://www.w3.org/2000/svg">
<path d="M20.5 0C9.17924 0 0 9.17924 0 20.5C0 31.8208 9.17924 41 20.5 41C31.8208 41 41 31.8208 41 20.5C41 9.17924 31.8208 0 20.5 0ZM28.1417 28.9929C26.2839 30.7042 23.7489 31.7109 20.7242 31.7109C16.3451 31.7109 12.5562 29.1988 10.7122 25.5381C9.95257 24.0234 9.51786 22.3121 9.51786 20.5C9.51786 18.6879 9.95257 16.9766 10.7122 15.4619C12.5562 11.7967 16.3451 9.28449 20.7242 9.28449C23.7443 9.28449 26.2794 10.3964 28.2241 12.2039L25.0118 15.4208C23.8496 14.3088 22.3715 13.746 20.7288 13.746C17.8094 13.746 15.3384 15.7182 14.4552 18.3676C14.231 19.0403 14.1029 19.7587 14.1029 20.5C14.1029 21.2413 14.231 21.9597 14.4552 22.6324C15.3384 25.2818 17.8094 27.254 20.7242 27.254C22.2343 27.254 23.5155 26.8559 24.5176 26.1833C25.7074 25.3871 26.4944 24.2019 26.7552 22.7971H20.7242V18.4592H31.2808C31.4135 19.1959 31.4821 19.96 31.4821 20.7517C31.4821 24.1699 30.2604 27.0389 28.1417 28.9929Z" fill="#703796"/>
</svg>
