<svg width="50" height="54" viewBox="0 0 50 54" fill="none" xmlns="http://www.w3.org/2000/svg">
<rect width="50" height="50" rx="15" fill="#D1B5E4"/>
<path fill-rule="evenodd" clip-rule="evenodd" d="M24.9999 15.625C21.6342 15.625 18.9058 17.8092 18.9058 20.5036V22.7227C17.615 22.7299 16.8767 22.7714 16.2886 23.0112C15.6632 23.2663 15.1546 23.6734 14.8359 24.1741C14.4736 24.7434 14.4736 25.4885 14.4736 26.9789V29.9947C14.4736 31.4851 14.4736 32.2302 14.8359 32.7995C15.1546 33.3002 15.6632 33.7073 16.2886 33.9624C16.9997 34.2525 17.9305 34.2525 19.7922 34.2525H30.2077C32.0694 34.2525 33.0002 34.2525 33.7113 33.9624C34.3368 33.7073 34.8453 33.3002 35.1639 32.7995C35.5263 32.2302 35.5263 31.4851 35.5263 29.9947V26.9789C35.5263 25.4885 35.5263 24.7434 35.1639 24.1741C34.8453 23.6734 34.3368 23.2663 33.7113 23.0112C33.1233 22.7714 32.3849 22.7299 31.0941 22.7227V20.5036C31.0941 17.8092 28.3657 15.625 24.9999 15.625ZM28.8781 22.7212V20.5036C28.8781 18.789 27.1418 17.399 24.9999 17.399C22.8581 17.399 21.1218 18.789 21.1218 20.5036V22.7212H28.8781ZM26.108 29.1365C26.7704 28.8297 27.216 28.2565 27.216 27.5998C27.216 26.62 26.2239 25.8257 25 25.8257C23.776 25.8257 22.7839 26.62 22.7839 27.5998C22.7839 28.2565 23.2295 28.8297 23.8919 29.1365V30.7044C23.8919 31.1943 24.388 31.5914 25 31.5914C25.6119 31.5914 26.108 31.1943 26.108 30.7044V29.1365Z" fill="white"/>
</svg>
