<svg width="43" height="43" viewBox="0 0 43 43" fill="none" xmlns="http://www.w3.org/2000/svg">
<circle cx="21.5833" cy="21.5833" r="18" fill="#C7007D"/>
<path d="M16.6804 12.0221C16.5143 12.1879 16.3826 12.3847 16.2927 12.6015C16.2027 12.8182 16.1565 13.0506 16.1565 13.2852C16.1565 13.5199 16.2027 13.7522 16.2927 13.969C16.3826 14.1857 16.5143 14.3826 16.6804 14.5483L23.6321 21.5L16.6804 28.4517C16.3454 28.7867 16.1572 29.241 16.1572 29.7148C16.1572 30.1886 16.3454 30.6429 16.6804 30.9779C17.0154 31.3129 17.4698 31.5011 17.9436 31.5011C18.4173 31.5011 18.8717 31.3129 19.2067 30.9779L27.4304 22.7542C27.5965 22.5884 27.7283 22.3915 27.8182 22.1748C27.9081 21.9581 27.9544 21.7257 27.9544 21.4911C27.9544 21.2564 27.9081 21.0241 27.8182 20.8073C27.7283 20.5906 27.5965 20.3937 27.4304 20.2279L19.2067 12.0042C18.5258 11.3233 17.3792 11.3233 16.6804 12.0221Z" fill="#D1B5E4"/>
</svg>
